<svg id="Layer_1" data-name="Layer 1" xmlns="http://www.w3.org/2000/svg" viewBox="0 0 25 41.83"><title>va-logo-rough</title><g id="Visual_Advocacy_Logo" data-name="Visual Advocacy Logo"><path d="M1,0.63A0.43,0.43,0,0,1,1.41.47q1.7-.11,3.4-0.09a2,2,0,0,1,.82.13,0.29,0.29,0,0,1-.3.08,14.07,14.07,0,0,0-1.8,0Z"/><path d="M3.45,40.91a2.74,2.74,0,0,1-1-.13,0.33,0.33,0,0,1,.38-0.11,1.76,1.76,0,0,0,.54.05A0.43,0.43,0,0,0,3.7,40.4a0.34,0.34,0,0,1,0-.13,0.07,0.07,0,0,1,.11,0l-0.07.37a0.38,0.38,0,0,1-.09.21A0.35,0.35,0,0,1,3.45,40.91Z"/><path d="M4.31,37.92c0-.34.36-0.6,0.39-0.94a0.46,0.46,0,0,1,.23-0.35l-0.13.53A1,1,0,0,1,4.31,37.92Z"/><path d="M0,0.72A1.08,1.08,0,0,1,.73.56,0.13,0.13,0,0,1,.85.63,1.45,1.45,0,0,1,0,.72Z"/><path d="M12.45,22.3a0.64,0.64,0,0,1-.4-0.61,0.28,0.28,0,0,1,0-.12A2.09,2.09,0,0,1,12.45,22.3Z"/><path d="M5,40.55a0.22,0.22,0,0,1,.19.08,0.67,0.67,0,0,1-.3.13,0.23,0.23,0,0,1-.25-0.17A0.41,0.41,0,0,1,5,40.53v0Z"/><path d="M6.48,33.34a0.3,0.3,0,0,1,0,.33,0.9,0.9,0,0,1-.23.26A1,1,0,0,1,6.48,33.34Z"/><path d="M4.07,39.71a0.29,0.29,0,0,1-.14.28l0.13-.56a0.18,0.18,0,0,1,0,.28h0Z"/><path d="M14.81,17.48c0-.08.14,0,0.11,0.08a2,2,0,0,0-.12.19,0.22,0.22,0,0,1,0-.26h0Z"/><path d="M7.72,30.66l0.12-.22a0.26,0.26,0,0,1,0,.26s-0.11,0-.08,0h0Z"/><path d="M4.51,38.24c0.07,0,0,.15,0,0.13a0.08,0.08,0,0,1,0-.12h0Z"/><path d="M14,33.62a0.86,0.86,0,0,1-.13-0.42,0.38,0.38,0,0,1,.17.4h0Z"/><path d="M8.35,31.67c0.09,0,0,.17,0,0.24a0.13,0.13,0,0,1,0-.21v0Z"/><path d="M3,41.27a1.36,1.36,0,0,0,1.15-1.1l2.39-6-1.44,2.1a41.63,41.63,0,0,0,2.53-4.54,61.51,61.51,0,0,0,3.71-9.6,1.42,1.42,0,0,0,.05-0.95q-4.1-9.6-8.85-18.9A1.25,1.25,0,0,0,1.6,1.46a3.17,3.17,0,0,1-.58,0c-0.19,0-.31-0.34-0.14-0.42l5.65-.39V0A3.46,3.46,0,0,0,8.27.73L7.27,1,14.7,15.11l1.25-2.27L20.82,0.77a6.12,6.12,0,0,1-3-.21l4.93-.41a1.78,1.78,0,0,1,1.13.16,5,5,0,0,0-.85-0.1l0.36,0.47c-0.79-.11-1.82-0.1-2.11.65Q17.56,11,13.26,20.51a0.89,0.89,0,0,1,.27.35L24,40.77a1.55,1.55,0,0,1-.53-0.63q-5.17-9-9.69-18.44A1.56,1.56,0,0,0,13,20.81a1,1,0,0,0-1.11.39,3.08,3.08,0,0,0-.5,1.14c-0.37,1.3-.73,2.77-0.07,4A3.77,3.77,0,0,1,10.72,25l-1,2.38,1-1.44q3.87,7.29,7.5,14.71a1.48,1.48,0,0,0,1.49.51L25,40.89a0.94,0.94,0,0,1-.75.31l0.32,0.19-6.35,0Q16.65,38,14.9,34.69a0.94,0.94,0,0,0-.28-0.37,1,1,0,0,0-.54-0.1l-6.4.05a1.09,1.09,0,0,0-.81.73,42.44,42.44,0,0,0-2.54,6.08c0.35,0.09,1.94.12,2.29,0.21,0.43,0.63-6.62,1-4.75,0,0.1-.4.69-0.08,1.09,0m9.6-21A0.8,0.8,0,0,0,12,20.19a0.57,0.57,0,0,0,.92.26,1.08,1.08,0,0,0,.18-0.31L14.89,16a0.86,0.86,0,0,0-.72.71,1.11,1.11,0,0,1-.62.84L14.33,16a0.64,0.64,0,0,0,0-.76L7,1.15A0.36,0.36,0,0,0,6.66.89a10,10,0,0,1-4.07.31c-0.09,0-.09.13-0.05,0.21l4.54,9.66,1.27,2.71,3.08,6.55a0.6,0.6,0,0,0,.22.29,0.21,0.21,0,0,0,.3-0.1,12.91,12.91,0,0,1-1.73-3.07q0.86,1.32,1.68,2.67a1,1,0,0,0,.9-0.51,0.84,0.84,0,0,1-.25.66m0.3,10.48a1.67,1.67,0,0,1-.36-0.65,24.16,24.16,0,0,0-1.78-3.67Q9,30.12,7.34,33.87l6.88,0c0.16,0,.39-0.12.29-0.25a15.78,15.78,0,0,1-1.66-2.91M19,6.25a1.76,1.76,0,0,0,.25-0.79L17,10.57a1.56,1.56,0,0,0-.18.85l1-2.21,0.65-1.44C18.68,7.38,18.85,7,19,6.6a0.3,0.3,0,0,0,0-.35M9.7,27.52a0.16,0.16,0,0,0-.13.13L8.5,30.28s0,0.12,0,.12a12.69,12.69,0,0,0,1.08-2.33,1.07,1.07,0,0,0,.08-0.55m9.85-23a0.21,0.21,0,0,0,.22-0.18,0.46,0.46,0,0,1,.13-0.27l0.83-2c-0.07-.06-0.17,0-0.21.13a25.42,25.42,0,0,0-1,2.36M14.94,15.82a1.67,1.67,0,0,0,.31-0.55,1,1,0,0,0,.06-0.34,0.76,0.76,0,0,0-.32.23,1.12,1.12,0,0,0,0,.67M6.42,35.38l0.43-1a0.15,0.15,0,0,0,0-.08,0.08,0.08,0,0,0-.1-0.06L6.4,35.1a0.21,0.21,0,0,0,0,.28m0.47-1.51a0.16,0.16,0,0,0,.25,0,0.45,0.45,0,0,0,.07-0.28V33.32l-0.32.56M15.5,14l0.13,0.13a0.44,0.44,0,0,0,0-.45,1.92,1.92,0,0,0-.15.33M7.38,32.81a0.06,0.06,0,0,0,.1,0V32.68a0.15,0.15,0,0,0-.08.12h0Z"/></g></svg>